<svg version="1.1" xmlns="http://www.w3.org/2000/svg" xmlns:xlink="http://www.w3.org/1999/xlink" width="1059.1025390625" height="522"><defs/><g><g transform="translate(-190,-238) scale(1,1)"><rect fill="#C0C0C0" stroke="none" x="207" y="255" width="116.2880859375" height="205" opacity="0.2"/></g><g transform="translate(-190,-238) scale(1,1)"><rect fill="#ffffff" stroke="none" x="200" y="248" width="116.2880859375" height="205"/></g><g transform="translate(-190,-238) scale(1,1)"><path fill="none" stroke="#000000" d="M 200 248 L 316.2880859375 248 L 316.2880859375 453 L 200 453 L 200 248 Z Z" stroke-miterlimit="10"/></g><g transform="translate(-190,-238) scale(1,1)"><path fill="none" stroke="#000000" d="M 200 273 L 316.2880859375 273" stroke-miterlimit="10"/></g><g transform="translate(-190,-238) scale(1,1)"><path fill="none" stroke="#000000" d="M 200 311 L 316.2880859375 311" stroke-miterlimit="10"/></g><g transform="translate(-190,-238) scale(1,1)"><g><path fill="none" stroke="none"/><text fill="#000000" stroke="none" font-family="Arial" font-size="13px" font-style="normal" font-weight="bold" text-decoration="none" x="239.358154296875" y="267.5">Vector</text></g></g><g transform="translate(-190,-238) scale(1,1)"><g><path fill="none" stroke="none"/><text fill="#000000" stroke="none" font-family="Arial" font-size="13px" font-style="normal" font-weight="normal" text-decoration="none" x="205" y="290.5">+x: number</text></g></g><g transform="translate(-190,-238) scale(1,1)"><g><path fill="none" stroke="none"/><text fill="#000000" stroke="none" font-family="Arial" font-size="13px" font-style="normal" font-weight="normal" text-decoration="none" x="205" y="305.5">+y: number</text></g></g><g transform="translate(-190,-238) scale(1,1)"><g><path fill="none" stroke="none"/><text fill="#000000" stroke="none" font-family="Arial" font-size="13px" font-style="normal" font-weight="normal" text-decoration="none" x="205" y="328.5">+add(): Vector</text></g></g><g transform="translate(-190,-238) scale(1,1)"><g><path fill="none" stroke="none"/><text fill="#000000" stroke="none" font-family="Arial" font-size="13px" font-style="normal" font-weight="normal" text-decoration="none" x="205" y="343.5">+subtract(): Vector</text></g></g><g transform="translate(-190,-238) scale(1,1)"><g><path fill="none" stroke="none"/><text fill="#000000" stroke="none" font-family="Arial" font-size="13px" font-style="normal" font-weight="normal" text-decoration="none" x="205" y="358.5">+scale(): Vector</text></g></g><g transform="translate(-190,-238) scale(1,1)"><g><path fill="none" stroke="none"/><text fill="#000000" stroke="none" font-family="Arial" font-size="13px" font-style="normal" font-weight="normal" text-decoration="none" x="205" y="373.5">+dot(): number</text></g></g><g transform="translate(-190,-238) scale(1,1)"><g><path fill="none" stroke="none"/><text fill="#000000" stroke="none" font-family="Arial" font-size="13px" font-style="normal" font-weight="normal" text-decoration="none" x="205" y="388.5">+cross(): number</text></g></g><g transform="translate(-190,-238) scale(1,1)"><g><path fill="none" stroke="none"/><text fill="#000000" stroke="none" font-family="Arial" font-size="13px" font-style="normal" font-weight="normal" text-decoration="none" x="205" y="403.5">+smalest(): Vector</text></g></g><g transform="translate(-190,-238) scale(1,1)"><g><path fill="none" stroke="none"/><text fill="#000000" stroke="none" font-family="Arial" font-size="13px" font-style="normal" font-weight="normal" text-decoration="none" x="205" y="418.5">+biggest(): Vector</text></g></g><g transform="translate(-190,-238) scale(1,1)"><g><path fill="none" stroke="none"/><text fill="#000000" stroke="none" font-family="Arial" font-size="13px" font-style="normal" font-weight="normal" text-decoration="none" x="205" y="433.5">+rotate(): Vector</text></g></g><g transform="translate(-190,-238) scale(1,1)"><g><path fill="none" stroke="none"/><text fill="#000000" stroke="none" font-family="Arial" font-size="13px" font-style="normal" font-weight="normal" text-decoration="none" x="205" y="448.5">+equal(): boolean</text></g></g><g transform="translate(-190,-238) scale(1,1)"><rect fill="#C0C0C0" stroke="none" x="455" y="255" width="161.83251953125" height="85" opacity="0.2"/></g><g transform="translate(-190,-238) scale(1,1)"><rect fill="#ffffff" stroke="none" x="448" y="248" width="161.83251953125" height="85"/></g><g transform="translate(-190,-238) scale(1,1)"><path fill="none" stroke="#000000" d="M 448 248 L 609.83251953125 248 L 609.83251953125 333 L 448 333 L 448 248 Z Z" stroke-miterlimit="10"/></g><g transform="translate(-190,-238) scale(1,1)"><path fill="none" stroke="#000000" d="M 448 273 L 609.83251953125 273" stroke-miterlimit="10"/></g><g transform="translate(-190,-238) scale(1,1)"><path fill="none" stroke="#000000" d="M 448 311 L 609.83251953125 311" stroke-miterlimit="10"/></g><g transform="translate(-190,-238) scale(1,1)"><g><path fill="none" stroke="none"/><text fill="#000000" stroke="none" font-family="Arial" font-size="13px" font-style="normal" font-weight="bold" text-decoration="none" x="499.647216796875" y="267.5">Rectangle</text></g></g><g transform="translate(-190,-238) scale(1,1)"><g><path fill="none" stroke="none"/><text fill="#000000" stroke="none" font-family="Arial" font-size="13px" font-style="normal" font-weight="normal" text-decoration="none" x="453" y="290.5">+min: Vector</text></g></g><g transform="translate(-190,-238) scale(1,1)"><g><path fill="none" stroke="none"/><text fill="#000000" stroke="none" font-family="Arial" font-size="13px" font-style="normal" font-weight="normal" text-decoration="none" x="453" y="305.5">+max: Vector</text></g></g><g transform="translate(-190,-238) scale(1,1)"><g><path fill="none" stroke="none"/><text fill="#000000" stroke="none" font-family="Arial" font-size="13px" font-style="normal" font-weight="normal" text-decoration="none" x="453" y="328.5">+checkCollision(): boolean</text></g></g><g transform="translate(-190,-238) scale(1,1)"><rect fill="#C0C0C0" stroke="none" x="783" y="263" width="174.46435546875" height="85" opacity="0.2"/></g><g transform="translate(-190,-238) scale(1,1)"><rect fill="#ffffff" stroke="none" x="776" y="256" width="174.46435546875" height="85"/></g><g transform="translate(-190,-238) scale(1,1)"><path fill="none" stroke="#000000" d="M 776 256 L 950.46435546875 256 L 950.46435546875 341 L 776 341 L 776 256 Z Z" stroke-miterlimit="10"/></g><g transform="translate(-190,-238) scale(1,1)"><path fill="none" stroke="#000000" d="M 776 281 L 950.46435546875 281" stroke-miterlimit="10"/></g><g transform="translate(-190,-238) scale(1,1)"><path fill="none" stroke="#000000" d="M 776 304 L 950.46435546875 304" stroke-miterlimit="10"/></g><g transform="translate(-190,-238) scale(1,1)"><g><path fill="none" stroke="none"/><text fill="#000000" stroke="none" font-family="Arial" font-size="13px" font-style="normal" font-weight="bold" text-decoration="none" x="844.80810546875" y="275.5">Hitbox</text></g></g><g transform="translate(-190,-238) scale(1,1)"><g><path fill="none" stroke="none"/><text fill="#000000" stroke="none" font-family="Arial" font-size="13px" font-style="normal" font-weight="normal" text-decoration="none" x="781" y="298.5">+collisionBox: Rectangle</text></g></g><g transform="translate(-190,-238) scale(1,1)"><g><path fill="none" stroke="none"/><text fill="#000000" stroke="none" font-family="Arial" font-size="13px" font-style="normal" font-weight="normal" text-decoration="none" x="781" y="321.5">-getCollisonBox(): Rectangle</text></g></g><g transform="translate(-190,-238) scale(1,1)"><g><path fill="none" stroke="none"/><text fill="#000000" stroke="none" font-family="Arial" font-size="13px" font-style="normal" font-weight="normal" text-decoration="none" x="781" y="336.5">+checkCollision(): boolean</text></g></g><g transform="translate(-190,-238) scale(1,1)"><rect fill="#C0C0C0" stroke="none" x="1039" y="407" width="161.83251953125" height="160" opacity="0.2"/></g><g transform="translate(-190,-238) scale(1,1)"><rect fill="#ffffff" stroke="none" x="1032" y="400" width="161.83251953125" height="160"/></g><g transform="translate(-190,-238) scale(1,1)"><path fill="none" stroke="#000000" d="M 1032 400 L 1193.83251953125 400 L 1193.83251953125 560 L 1032 560 L 1032 400 Z Z" stroke-miterlimit="10"/></g><g transform="translate(-190,-238) scale(1,1)"><path fill="none" stroke="#000000" d="M 1032 425 L 1193.83251953125 425" stroke-miterlimit="10"/></g><g transform="translate(-190,-238) scale(1,1)"><path fill="none" stroke="#000000" d="M 1032 538 L 1193.83251953125 538" stroke-miterlimit="10"/></g><g transform="translate(-190,-238) scale(1,1)"><g><path fill="none" stroke="none"/><text fill="#000000" stroke="none" font-family="Arial" font-size="13px" font-style="normal" font-weight="bold" text-decoration="none" x="1095.212646484375" y="419.5">Model</text></g></g><g transform="translate(-190,-238) scale(1,1)"><g><path fill="none" stroke="none"/><text fill="#000000" stroke="none" font-family="Arial" font-size="13px" font-style="normal" font-weight="normal" text-decoration="none" x="1037" y="442.5">+hitbox: Hitbox</text></g></g><g transform="translate(-190,-238) scale(1,1)"><g><path fill="none" stroke="none"/><text fill="#000000" stroke="none" font-family="Arial" font-size="13px" font-style="normal" font-weight="normal" text-decoration="none" x="1037" y="457.5">+texture: Image</text></g></g><g transform="translate(-190,-238) scale(1,1)"><g><path fill="none" stroke="none"/><text fill="#000000" stroke="none" font-family="Arial" font-size="13px" font-style="normal" font-weight="normal" text-decoration="none" x="1037" y="472.5">+name: string</text></g></g><g transform="translate(-190,-238) scale(1,1)"><g><path fill="none" stroke="none"/><text fill="#000000" stroke="none" font-family="Arial" font-size="13px" font-style="normal" font-weight="normal" text-decoration="none" x="1037" y="487.5">+textureSize: Vector</text></g></g><g transform="translate(-190,-238) scale(1,1)"><g><path fill="none" stroke="none"/><text fill="#000000" stroke="none" font-family="Arial" font-size="13px" font-style="normal" font-weight="normal" text-decoration="none" x="1037" y="502.5">+spriteMax: number</text></g></g><g transform="translate(-190,-238) scale(1,1)"><g><path fill="none" stroke="none"/><text fill="#000000" stroke="none" font-family="Arial" font-size="13px" font-style="normal" font-weight="normal" text-decoration="none" x="1037" y="517.5">+hasPattern: boolean</text></g></g><g transform="translate(-190,-238) scale(1,1)"><g><path fill="none" stroke="none"/><text fill="#000000" stroke="none" font-family="Arial" font-size="13px" font-style="normal" font-weight="normal" text-decoration="none" x="1037" y="532.5">+pattern: Pattern</text></g></g><g transform="translate(-190,-238) scale(1,1)"><g><path fill="none" stroke="none"/><text fill="#000000" stroke="none" font-family="Arial" font-size="13px" font-style="normal" font-weight="normal" text-decoration="none" x="1037" y="555.5">+checkCollision(): boolean</text></g></g><g transform="translate(-190,-238) scale(1,1)"><rect fill="#C0C0C0" stroke="none" x="455" y="375" width="204.46337890625" height="115" opacity="0.2"/></g><g transform="translate(-190,-238) scale(1,1)"><rect fill="#ffffff" stroke="none" x="448" y="368" width="204.46337890625" height="115"/></g><g transform="translate(-190,-238) scale(1,1)"><path fill="none" stroke="#000000" d="M 448 368 L 652.46337890625 368 L 652.46337890625 483 L 448 483 L 448 368 Z Z" stroke-miterlimit="10"/></g><g transform="translate(-190,-238) scale(1,1)"><path fill="none" stroke="#000000" d="M 448 393 L 652.46337890625 393" stroke-miterlimit="10"/></g><g transform="translate(-190,-238) scale(1,1)"><path fill="none" stroke="#000000" d="M 448 431 L 652.46337890625 431" stroke-miterlimit="10"/></g><g transform="translate(-190,-238) scale(1,1)"><g><path fill="none" stroke="none"/><text fill="#000000" stroke="none" font-family="Arial" font-size="13px" font-style="normal" font-weight="bold" text-decoration="none" x="535.416259765625" y="387.5">Body</text></g></g><g transform="translate(-190,-238) scale(1,1)"><g><path fill="none" stroke="none"/><text fill="#000000" stroke="none" font-family="Arial" font-size="13px" font-style="normal" font-weight="normal" text-decoration="none" x="453" y="410.5">+position: Vector</text></g></g><g transform="translate(-190,-238) scale(1,1)"><g><path fill="none" stroke="none"/><text fill="#000000" stroke="none" font-family="Arial" font-size="13px" font-style="normal" font-weight="normal" text-decoration="none" x="453" y="425.5">+model: Model</text></g></g><g transform="translate(-190,-238) scale(1,1)"><g><path fill="none" stroke="none"/><text fill="#000000" stroke="none" font-family="Arial" font-size="13px" font-style="normal" font-weight="normal" text-decoration="none" x="453" y="448.5">+checkCollision(): boolean</text></g></g><g transform="translate(-190,-238) scale(1,1)"><g><path fill="none" stroke="none"/><text fill="#000000" stroke="none" font-family="Arial" font-size="13px" font-style="normal" font-weight="normal" text-decoration="none" x="453" y="463.5">+render(): void</text></g></g><g transform="translate(-190,-238) scale(1,1)"><g><path fill="none" stroke="none"/><text fill="#000000" stroke="none" font-family="Arial" font-size="13px" font-style="normal" font-weight="normal" text-decoration="none" x="453" y="478.5">+getCollisionPosition(): Rectangle</text></g></g><g transform="translate(-190,-238) scale(1,1)"><rect fill="#C0C0C0" stroke="none" x="583" y="527" width="145.931640625" height="100" opacity="0.2"/></g><g transform="translate(-190,-238) scale(1,1)"><rect fill="#ffffff" stroke="none" x="576" y="520" width="145.931640625" height="100"/></g><g transform="translate(-190,-238) scale(1,1)"><path fill="none" stroke="#000000" d="M 576 520 L 721.931640625 520 L 721.931640625 620 L 576 620 L 576 520 Z Z" stroke-miterlimit="10"/></g><g transform="translate(-190,-238) scale(1,1)"><path fill="none" stroke="#000000" d="M 576 545 L 721.931640625 545" stroke-miterlimit="10"/></g><g transform="translate(-190,-238) scale(1,1)"><path fill="none" stroke="#000000" d="M 576 598 L 721.931640625 598" stroke-miterlimit="10"/></g><g transform="translate(-190,-238) scale(1,1)"><g><path fill="none" stroke="none"/><text fill="#000000" stroke="none" font-family="Arial" font-size="13px" font-style="normal" font-weight="bold" text-decoration="none" x="632.70947265625" y="539.5">Entity</text></g></g><g transform="translate(-190,-238) scale(1,1)"><g><path fill="none" stroke="none"/><text fill="#000000" stroke="none" font-family="Arial" font-size="13px" font-style="normal" font-weight="normal" text-decoration="none" x="581" y="562.5">+velocity: Vector</text></g></g><g transform="translate(-190,-238) scale(1,1)"><g><path fill="none" stroke="none"/><text fill="#000000" stroke="none" font-family="Arial" font-size="13px" font-style="normal" font-weight="normal" text-decoration="none" x="581" y="577.5">+force: Vector</text></g></g><g transform="translate(-190,-238) scale(1,1)"><g><path fill="none" stroke="none"/><text fill="#000000" stroke="none" font-family="Arial" font-size="13px" font-style="normal" font-weight="normal" text-decoration="none" x="581" y="592.5">+spritePosition: number</text></g></g><g transform="translate(-190,-238) scale(1,1)"><g><path fill="none" stroke="none"/><text fill="#000000" stroke="none" font-family="Arial" font-size="13px" font-style="normal" font-weight="normal" text-decoration="none" x="581" y="615.5">+render(): void</text></g></g><g transform="translate(-190,-238) scale(1,1)"><path fill="none" stroke="#000000" d="M 614 519 L 590 484" stroke-miterlimit="10"/></g><g transform="translate(-190,-238) scale(1,1)"><path fill="#FFFFFF" stroke="none" d="M 608.4379830919627 496.00169902557536 L 590 484 L 594.5511401089855 505.52410564247407"/></g><g transform="translate(-190,-238) scale(1,1)"><path fill="none" stroke="#000000" d="M 608.4379830919627 496.00169902557536 L 590 484 L 594.5511401089855 505.52410564247407 L 608.4379830919627 496.00169902557536" stroke-miterlimit="10"/></g><g transform="translate(-190,-238) scale(1,1)"><path fill="none" stroke="#000000" d="M 447 399 L 317 365" stroke-miterlimit="10"/></g><g transform="translate(-190,-238) scale(1,1)"><path fill="none" stroke="#000000" d="M 1031 421 L 923 342" stroke-miterlimit="10"/></g><g transform="translate(-190,-238) scale(1,1)"><path fill="none" stroke="#000000" d="M 775 296 L 611 292" stroke-miterlimit="10"/></g><g transform="translate(-190,-238) scale(1,1)"><path fill="#000000" stroke="none" d="M 764.7377059610197 299.96046980262577 L 775 296 L 764.9429872403856 291.543937348628 L 753.0065408058529 295.4635741659964"/></g><g transform="translate(-190,-238) scale(1,1)"><path fill="none" stroke="#000000" d="M 764.7377059610197 299.96046980262577 L 775 296 L 764.9429872403856 291.543937348628 L 753.0065408058529 295.4635741659964 L 764.7377059610197 299.96046980262577" stroke-miterlimit="10"/></g><g transform="translate(-190,-238) scale(1,1)"><path fill="none" stroke="#000000" d="M 447 308 L 317 337" stroke-miterlimit="10"/></g><g transform="translate(-190,-238) scale(1,1)"><rect fill="#C0C0C0" stroke="none" x="359" y="527" width="161.83251953125" height="70" opacity="0.2"/></g><g transform="translate(-190,-238) scale(1,1)"><rect fill="#ffffff" stroke="none" x="352" y="520" width="161.83251953125" height="70"/></g><g transform="translate(-190,-238) scale(1,1)"><path fill="none" stroke="#000000" d="M 352 520 L 513.83251953125 520 L 513.83251953125 590 L 352 590 L 352 520 Z Z" stroke-miterlimit="10"/></g><g transform="translate(-190,-238) scale(1,1)"><path fill="none" stroke="#000000" d="M 352 545 L 513.83251953125 545" stroke-miterlimit="10"/></g><g transform="translate(-190,-238) scale(1,1)"><path fill="none" stroke="#000000" d="M 352 568 L 513.83251953125 568" stroke-miterlimit="10"/></g><g transform="translate(-190,-238) scale(1,1)"><g><path fill="none" stroke="none"/><text fill="#000000" stroke="none" font-family="Arial" font-size="13px" font-style="normal" font-weight="bold" text-decoration="none" x="417.021728515625" y="539.5">Block</text></g></g><g transform="translate(-190,-238) scale(1,1)"><g><path fill="none" stroke="none"/><text fill="#000000" stroke="none" font-family="Arial" font-size="13px" font-style="normal" font-weight="normal" text-decoration="none" x="357" y="562.5">+collision: boolean</text></g></g><g transform="translate(-190,-238) scale(1,1)"><g><path fill="none" stroke="none"/><text fill="#000000" stroke="none" font-family="Arial" font-size="13px" font-style="normal" font-weight="normal" text-decoration="none" x="357" y="585.5">+checkCollision(): boolean</text></g></g><g transform="translate(-190,-238) scale(1,1)"><path fill="none" stroke="#000000" d="M 465 519 L 496 484" stroke-miterlimit="10"/></g><g transform="translate(-190,-238) scale(1,1)"><path fill="#FFFFFF" stroke="none" d="M 488.8259672385839 504.79743383059866 L 496 484 L 476.22118629305345 493.63319927884305"/></g><g transform="translate(-190,-238) scale(1,1)"><path fill="none" stroke="#000000" d="M 488.8259672385839 504.79743383059866 L 496 484 L 476.22118629305345 493.63319927884305 L 488.8259672385839 504.79743383059866" stroke-miterlimit="10"/></g><g transform="translate(-190,-238) scale(1,1)"><rect fill="#C0C0C0" stroke="none" x="351" y="655" width="140.142578125" height="102" opacity="0.2"/></g><g transform="translate(-190,-238) scale(1,1)"><rect fill="#ffffff" stroke="none" x="344" y="648" width="140.142578125" height="102"/></g><g transform="translate(-190,-238) scale(1,1)"><path fill="none" stroke="#000000" d="M 344 648 L 484.142578125 648 L 484.142578125 750 L 344 750 L 344 648 Z Z" stroke-miterlimit="10"/></g><g transform="translate(-190,-238) scale(1,1)"><path fill="none" stroke="#000000" d="M 344 673 L 484.142578125 673" stroke-miterlimit="10"/></g><g transform="translate(-190,-238) scale(1,1)"><path fill="none" stroke="#000000" d="M 344 741 L 484.142578125 741" stroke-miterlimit="10"/></g><g transform="translate(-190,-238) scale(1,1)"><g><path fill="none" stroke="none"/><text fill="#000000" stroke="none" font-family="Arial" font-size="13px" font-style="normal" font-weight="bold" text-decoration="none" x="401.4267578125" y="667.5">Map</text></g></g><g transform="translate(-190,-238) scale(1,1)"><g><path fill="none" stroke="none"/><text fill="#000000" stroke="none" font-family="Arial" font-size="13px" font-style="normal" font-weight="normal" text-decoration="none" x="349" y="690.5">+entitys: Array&lt;Entity&gt;</text></g></g><g transform="translate(-190,-238) scale(1,1)"><g><path fill="none" stroke="none"/><text fill="#000000" stroke="none" font-family="Arial" font-size="13px" font-style="normal" font-weight="normal" text-decoration="none" x="349" y="705.5">+blocks: Array&lt;Block&gt;</text></g></g><g transform="translate(-190,-238) scale(1,1)"><g><path fill="none" stroke="none"/><text fill="#000000" stroke="none" font-family="Arial" font-size="13px" font-style="normal" font-weight="normal" text-decoration="none" x="349" y="720.5">+size: Vector</text></g></g><g transform="translate(-190,-238) scale(1,1)"><g><path fill="none" stroke="none"/><text fill="#000000" stroke="none" font-family="Arial" font-size="13px" font-style="normal" font-weight="normal" text-decoration="none" x="349" y="735.5">+background: Pattern</text></g></g><g transform="translate(-190,-238) scale(1,1)"><path fill="none" stroke="#000000" d="M 421 647 L 428 591" stroke-miterlimit="10"/></g><g transform="translate(-190,-238) scale(1,1)"><path fill="#FFFFFF" stroke="none" d="M 418.0835133377538 636.3936761529293 L 421 647 L 426.43753601960987 637.4379289881614 L 423.7287641609626 625.1698867122993"/></g><g transform="translate(-190,-238) scale(1,1)"><path fill="none" stroke="#000000" d="M 418.0835133377538 636.3936761529293 L 421 647 L 426.43753601960987 637.4379289881614 L 423.7287641609626 625.1698867122993 L 418.0835133377538 636.3936761529293" stroke-miterlimit="10"/></g><g transform="translate(-190,-238) scale(1,1)"><path fill="none" stroke="#000000" d="M 485 660 L 575 610" stroke-miterlimit="10"/></g><g transform="translate(-190,-238) scale(1,1)"><path fill="#FFFFFF" stroke="none" d="M 491.8394536297695 651.3847882181439 L 485 660 L 495.92809871352966 658.7443493689123 L 504.2314600746738 649.3158555140701"/></g><g transform="translate(-190,-238) scale(1,1)"><path fill="none" stroke="#000000" d="M 491.8394536297695 651.3847882181439 L 485 660 L 495.92809871352966 658.7443493689123 L 504.2314600746738 649.3158555140701 L 491.8394536297695 651.3847882181439" stroke-miterlimit="10"/></g><g transform="translate(-190,-238) scale(1,1)"><path fill="none" stroke="#000000" d="M 391 647 L 304 454" stroke-miterlimit="10"/></g><g transform="translate(-190,-238) scale(1,1)"><path fill="none" stroke="#000000" d="M 653 383 L 775 334" stroke-miterlimit="10"/></g><g transform="translate(-190,-238) scale(1,1)"><rect fill="#C0C0C0" stroke="none" x="719" y="663" width="147.37255859375" height="85" opacity="0.2"/></g><g transform="translate(-190,-238) scale(1,1)"><rect fill="#ffffff" stroke="none" x="712" y="656" width="147.37255859375" height="85"/></g><g transform="translate(-190,-238) scale(1,1)"><path fill="none" stroke="#000000" d="M 712 656 L 859.37255859375 656 L 859.37255859375 741 L 712 741 L 712 656 Z Z" stroke-miterlimit="10"/></g><g transform="translate(-190,-238) scale(1,1)"><path fill="none" stroke="#000000" d="M 712 681 L 859.37255859375 681" stroke-miterlimit="10"/></g><g transform="translate(-190,-238) scale(1,1)"><path fill="none" stroke="#000000" d="M 712 719 L 859.37255859375 719" stroke-miterlimit="10"/></g><g transform="translate(-190,-238) scale(1,1)"><g><path fill="none" stroke="none"/><text fill="#000000" stroke="none" font-family="Arial" font-size="13px" font-style="normal" font-weight="bold" text-decoration="none" x="767.98583984375" y="675.5">Game</text></g></g><g transform="translate(-190,-238) scale(1,1)"><g><path fill="none" stroke="none"/><text fill="#000000" stroke="none" font-family="Arial" font-size="13px" font-style="normal" font-weight="normal" text-decoration="none" x="717" y="698.5">+map: Map</text></g></g><g transform="translate(-190,-238) scale(1,1)"><g><path fill="none" stroke="none"/><text fill="#000000" stroke="none" font-family="Arial" font-size="13px" font-style="normal" font-weight="normal" text-decoration="none" x="717" y="713.5">+models: Array&lt;Model&gt;</text></g></g><g transform="translate(-190,-238) scale(1,1)"><g><path fill="none" stroke="none"/><text fill="#000000" stroke="none" font-family="Arial" font-size="13px" font-style="normal" font-weight="normal" text-decoration="none" x="717" y="736.5">+gameLoop(): void</text></g></g><g transform="translate(-190,-238) scale(1,1)"><path fill="none" stroke="#000000" d="M 711 698 L 485 699" stroke-miterlimit="10"/></g><g transform="translate(-190,-238) scale(1,1)"><path fill="none" stroke="#000000" d="M 850 655 L 1031 534" stroke-miterlimit="10"/></g><g transform="translate(-190,-238) scale(1,1)"><path fill="#FFFFFF" stroke="none" d="M 1024.8908116925218 543.1475580470293 L 1031 534 L 1020.2118511938845 536.1484518465886 L 1012.710454102535 546.2267130032777"/></g><g transform="translate(-190,-238) scale(1,1)"><path fill="none" stroke="#000000" d="M 1024.8908116925218 543.1475580470293 L 1031 534 L 1020.2118511938845 536.1484518465886 L 1012.710454102535 546.2267130032777 L 1024.8908116925218 543.1475580470293" stroke-miterlimit="10"/></g><g transform="translate(-190,-238) scale(1,1)"><rect fill="#C0C0C0" stroke="none" x="751" y="383" width="215.3115234375" height="160" opacity="0.2"/></g><g transform="translate(-190,-238) scale(1,1)"><rect fill="#ffffff" stroke="none" x="744" y="376" width="215.3115234375" height="160"/></g><g transform="translate(-190,-238) scale(1,1)"><path fill="none" stroke="#000000" d="M 744 376 L 959.3115234375 376 L 959.3115234375 536 L 744 536 L 744 376 Z Z" stroke-miterlimit="10"/></g><g transform="translate(-190,-238) scale(1,1)"><path fill="none" stroke="#000000" d="M 744 401 L 959.3115234375 401" stroke-miterlimit="10"/></g><g transform="translate(-190,-238) scale(1,1)"><path fill="none" stroke="#000000" d="M 744 499 L 959.3115234375 499" stroke-miterlimit="10"/></g><g transform="translate(-190,-238) scale(1,1)"><g><path fill="none" stroke="none"/><text fill="#000000" stroke="none" font-family="Arial" font-size="13px" font-style="normal" font-weight="bold" text-decoration="none" x="830.337158203125" y="395.5">Render</text></g></g><g transform="translate(-190,-238) scale(1,1)"><g><path fill="none" stroke="none"/><text fill="#000000" stroke="none" font-family="Arial" font-size="13px" font-style="normal" font-weight="normal" text-decoration="none" x="749" y="418.5">+game: Game</text></g></g><g transform="translate(-190,-238) scale(1,1)"><g><path fill="none" stroke="none"/><text fill="#000000" stroke="none" font-family="Arial" font-size="13px" font-style="normal" font-weight="normal" text-decoration="none" x="749" y="433.5">+canvas: Canvas</text></g></g><g transform="translate(-190,-238) scale(1,1)"><g><path fill="none" stroke="none"/><text fill="#000000" stroke="none" font-family="Arial" font-size="13px" font-style="normal" font-weight="normal" text-decoration="none" x="749" y="448.5">+context: 2DRenderingContext</text></g></g><g transform="translate(-190,-238) scale(1,1)"><g><path fill="none" stroke="none"/><text fill="#000000" stroke="none" font-family="Arial" font-size="13px" font-style="normal" font-weight="normal" text-decoration="none" x="749" y="463.5">+mapCanvas: Canvas</text></g></g><g transform="translate(-190,-238) scale(1,1)"><g><path fill="none" stroke="none"/><text fill="#000000" stroke="none" font-family="Arial" font-size="13px" font-style="normal" font-weight="normal" text-decoration="none" x="749" y="478.5">+mapContext: 2DRenderingContext</text></g></g><g transform="translate(-190,-238) scale(1,1)"><g><path fill="none" stroke="none"/><text fill="#000000" stroke="none" font-family="Arial" font-size="13px" font-style="normal" font-weight="normal" text-decoration="none" x="749" y="493.5">+cameraEntity: Entity</text></g></g><g transform="translate(-190,-238) scale(1,1)"><g><path fill="none" stroke="none"/><text fill="#000000" stroke="none" font-family="Arial" font-size="13px" font-style="normal" font-weight="normal" text-decoration="none" x="749" y="516.5">+paintBlocks(): void</text></g></g><g transform="translate(-190,-238) scale(1,1)"><g><path fill="none" stroke="none"/><text fill="#000000" stroke="none" font-family="Arial" font-size="13px" font-style="normal" font-weight="normal" text-decoration="none" x="749" y="531.5">+renderLoop(): void</text></g></g><g transform="translate(-190,-238) scale(1,1)"><path fill="none" stroke="#000000" d="M 829 537 L 797 655" stroke-miterlimit="10"/></g><g transform="translate(-190,-238) scale(1,1)"><path fill="none" stroke="#000000" d="M 743 517 L 723 528" stroke-miterlimit="10"/></g><g transform="translate(-190,-238) scale(1,1)"><rect fill="#C0C0C0" stroke="none" x="951" y="655" width="106.8935546875" height="70" opacity="0.2"/></g><g transform="translate(-190,-238) scale(1,1)"><rect fill="#ffffff" stroke="none" x="944" y="648" width="106.8935546875" height="70"/></g><g transform="translate(-190,-238) scale(1,1)"><path fill="none" stroke="#000000" d="M 944 648 L 1050.8935546875 648 L 1050.8935546875 718 L 944 718 L 944 648 Z Z" stroke-miterlimit="10"/></g><g transform="translate(-190,-238) scale(1,1)"><path fill="none" stroke="#000000" d="M 944 673 L 1050.8935546875 673" stroke-miterlimit="10"/></g><g transform="translate(-190,-238) scale(1,1)"><path fill="none" stroke="#000000" d="M 944 696 L 1050.8935546875 696" stroke-miterlimit="10"/></g><g transform="translate(-190,-238) scale(1,1)"><g><path fill="none" stroke="none"/><text fill="#000000" stroke="none" font-family="Arial" font-size="13px" font-style="normal" font-weight="bold" text-decoration="none" x="982.989990234375" y="667.5">Input</text></g></g><g transform="translate(-190,-238) scale(1,1)"><g><path fill="none" stroke="none"/><text fill="#000000" stroke="none" font-family="Arial" font-size="13px" font-style="normal" font-weight="normal" text-decoration="none" x="949" y="690.5">+game: Game</text></g></g><g transform="translate(-190,-238) scale(1,1)"><g><path fill="none" stroke="none"/><text fill="#000000" stroke="none" font-family="Arial" font-size="13px" font-style="normal" font-weight="normal" text-decoration="none" x="949" y="713.5">+setForce(): void</text></g></g><g transform="translate(-190,-238) scale(1,1)"><path fill="none" stroke="#000000" d="M 943 687 L 860 693" stroke-miterlimit="10"/></g><g transform="translate(-190,-238) scale(1,1)"><rect fill="#C0C0C0" stroke="none" x="1111" y="623" width="135.1025390625" height="102" opacity="0.2"/></g><g transform="translate(-190,-238) scale(1,1)"><rect fill="#ffffff" stroke="none" x="1104" y="616" width="135.1025390625" height="102"/></g><g transform="translate(-190,-238) scale(1,1)"><path fill="none" stroke="#000000" d="M 1104 616 L 1239.1025390625 616 L 1239.1025390625 718 L 1104 718 L 1104 616 Z Z" stroke-miterlimit="10"/></g><g transform="translate(-190,-238) scale(1,1)"><path fill="none" stroke="#000000" d="M 1104 641 L 1239.1025390625 641" stroke-miterlimit="10"/></g><g transform="translate(-190,-238) scale(1,1)"><path fill="none" stroke="#000000" d="M 1104 709 L 1239.1025390625 709" stroke-miterlimit="10"/></g><g transform="translate(-190,-238) scale(1,1)"><g><path fill="none" stroke="none"/><text fill="#000000" stroke="none" font-family="Arial" font-size="13px" font-style="normal" font-weight="bold" text-decoration="none" x="1153.127197265625" y="635.5">Player</text></g></g><g transform="translate(-190,-238) scale(1,1)"><g><path fill="none" stroke="none"/><text fill="#000000" stroke="none" font-family="Arial" font-size="13px" font-style="normal" font-weight="normal" text-decoration="none" x="1109" y="658.5">+keys: Object</text></g></g><g transform="translate(-190,-238) scale(1,1)"><g><path fill="none" stroke="none"/><text fill="#000000" stroke="none" font-family="Arial" font-size="13px" font-style="normal" font-weight="normal" text-decoration="none" x="1109" y="673.5">+playerIndex: number</text></g></g><g transform="translate(-190,-238) scale(1,1)"><g><path fill="none" stroke="none"/><text fill="#000000" stroke="none" font-family="Arial" font-size="13px" font-style="normal" font-weight="normal" text-decoration="none" x="1109" y="688.5">+input: Input</text></g></g><g transform="translate(-190,-238) scale(1,1)"><g><path fill="none" stroke="none"/><text fill="#000000" stroke="none" font-family="Arial" font-size="13px" font-style="normal" font-weight="normal" text-decoration="none" x="1109" y="703.5">+render: Render</text></g></g><g transform="translate(-190,-238) scale(1,1)"><path fill="none" stroke="#000000" d="M 1103 673 L 1052 678" stroke-miterlimit="10"/></g><g transform="translate(-190,-238) scale(1,1)"><path fill="none" stroke="#000000" d="M 1103 622 L 960 528" stroke-miterlimit="10"/></g></g></svg>